<?xml version="1.0" encoding="utf-8"?>
<!-- Generator: Adobe Illustrator 24.2.3, SVG Export Plug-In . SVG Version: 6.00 Build 0)  -->
<svg version="1.1"
	 id="svg8" xmlns:cc="http://creativecommons.org/ns#" xmlns:dc="http://purl.org/dc/elements/1.1/" xmlns:inkscape="http://www.inkscape.org/namespaces/inkscape" xmlns:rdf="http://www.w3.org/1999/02/22-rdf-syntax-ns#" xmlns:sodipodi="http://sodipodi.sourceforge.net/DTD/sodipodi-0.dtd" xmlns:svg="http://www.w3.org/2000/svg"
	 xmlns="http://www.w3.org/2000/svg" xmlns:xlink="http://www.w3.org/1999/xlink" x="0px" y="0px" viewBox="0 0 16 16"
	 style="enable-background:new 0 0 16 16;" xml:space="preserve">
<style type="text/css">
	.st0{enable-background:new    ;}
</style>
<sodipodi:namedview  bordercolor="#666666" borderopacity="1.0" id="base" inkscape:current-layer="layer1" inkscape:cx="16" inkscape:cy="16" inkscape:document-rotation="0" inkscape:document-units="px" inkscape:pageopacity="0.0" inkscape:pageshadow="2" inkscape:window-height="1000" inkscape:window-maximized="1" inkscape:window-width="1920" inkscape:window-x="-11" inkscape:window-y="-11" inkscape:zoom="24.375" pagecolor="#ffffff" showgrid="false" units="px">
	</sodipodi:namedview>
<g id="layer1" inkscape:groupmode="layer" inkscape:label="Capa 1">
	
		<g id="g842" transform="scale(0.0625)" inkscape:export-filename="C:\Users\Oscar Llorente\GRAPHIC_DESIGN\GITHUB\SANDBOX\MEETINGS\web\img\favicon.png" inkscape:export-xdpi="6.0000005" inkscape:export-ydpi="6.0000005">
		<g class="st0">
			<path d="M42.7,44.6c0.2-1.4,0.7-2.7,1.7-3.7c1-1,2.3-1.6,4.1-1.6h41.3c2.9,0,4.9,1.5,5.7,4.5l32.5,108.4l32.7-108.4
				c1.1-3,3.1-4.5,6.1-4.5h40.8c1.4,0,2.7,0.5,3.9,1.5c1.2,1,1.8,2.3,2,3.8c2.8,28,5.6,55.8,8.5,83.4c2.9,27.6,5.7,55.4,8.5,83.4
				v0.6c0,3.1-1.8,4.7-5.3,4.7h-33.8c-3.7,0-5.6-1.8-5.7-5.3l-10.4-92.3L148.4,212c-0.2,0.8-0.7,1.8-1.7,2.9s-2,1.7-2.9,1.7h-31.4
				c-1,0-2-0.5-3-1.6c-1.1-1.1-1.7-2-1.7-2.9l-26.9-92.6l-10.4,92c-0.2,3.5-2.1,5.3-5.8,5.3H30.7c-3.4,0-5.1-1.8-5.1-5.3L42.7,44.6z
				"/>
		</g>
	</g>
</g>
</svg>
